<?xml version="1.0" standalone="no"?>
<!DOCTYPE svg PUBLIC "-//W3C//DTD SVG 20010904//EN"
 "http://www.w3.org/TR/2001/REC-SVG-20010904/DTD/svg10.dtd">
<svg version="1.0" xmlns="http://www.w3.org/2000/svg"
 width="1191.000000pt" height="1280.000000pt" viewBox="0 0 1191.000000 1280.000000"
 preserveAspectRatio="xMidYMid meet">
<metadata>
Created by potrace 1.15, written by Peter Selinger 2001-2017
</metadata>
<g transform="translate(0.000000,1280.000000) scale(0.100000,-0.100000)"
fill="#9c27b0" stroke="none">
<path d="M6180 12794 c-30 -2 -136 -8 -235 -14 -310 -18 -800 -61 -1040 -91
-567 -70 -873 -160 -1408 -416 -641 -305 -1088 -582 -1512 -934 -143 -119
-530 -508 -680 -684 -558 -656 -915 -1310 -1178 -2160 -123 -396 -147 -536
-111 -654 22 -74 72 -120 206 -187 186 -93 192 -99 227 -207 49 -152 171 -669
172 -727 1 -29 -144 -358 -251 -570 -40 -80 -79 -167 -86 -195 -58 -213 53
-507 367 -977 114 -169 240 -344 595 -816 233 -311 304 -412 304 -434 0 -59
90 -876 105 -957 21 -108 40 -144 126 -239 76 -82 71 -73 273 -500 186 -393
236 -462 517 -714 190 -170 293 -274 326 -328 12 -20 32 -71 44 -115 51 -188
137 -280 282 -301 60 -8 170 3 194 21 29 21 21 106 -30 325 -126 539 -196
1070 -272 2050 -117 1528 -145 2746 -79 3395 8 83 18 227 21 321 l6 172 -23
12 c-61 32 -211 -11 -299 -86 -87 -75 -114 -148 -161 -434 -43 -262 -66 -335
-127 -392 -51 -49 -155 -71 -384 -80 l-77 -3 -407 365 c-224 201 -415 372
-425 380 -19 16 -41 146 -135 799 l-45 314 102 191 c251 472 487 848 743 1182
996 1297 2241 2016 3721 2149 200 18 742 20 959 5 920 -67 1654 -297 2320
-728 444 -287 1282 -1040 1647 -1479 93 -112 299 -385 367 -487 144 -213 156
-296 126 -806 -20 -338 -39 -501 -66 -553 -42 -81 -404 -472 -652 -705 -145
-136 -169 -148 -272 -139 -76 7 -232 52 -265 76 -74 53 -115 148 -171 396 -63
281 -129 377 -280 405 -30 6 -93 20 -140 32 -103 26 -119 20 -119 -46 0 -62
69 -387 170 -806 l90 -375 65 -1025 c164 -2615 174 -2881 135 -3585 -11 -183
-8 -481 5 -493 7 -7 196 38 239 57 89 39 136 113 155 241 33 222 82 302 312
515 85 79 191 239 287 434 92 184 144 313 222 551 69 208 126 345 175 416 20
28 41 67 47 85 8 24 14 206 17 589 l6 556 108 196 c59 108 189 340 289 515
314 551 473 880 533 1103 34 129 49 300 36 410 -13 104 -36 151 -153 315 -129
181 -214 315 -250 391 l-32 69 1 190 c1 195 23 441 49 554 22 99 72 161 176
222 89 52 155 120 192 199 41 86 42 172 3 279 -56 155 -156 376 -292 646 -225
446 -327 614 -561 925 -706 939 -1453 1497 -2664 1991 -349 143 -907 289
-1435 375 -139 23 -196 26 -425 29 -146 1 -290 1 -320 -1z"/>
<path d="M7725 7611 c-201 -36 -387 -105 -477 -178 -118 -96 -232 -300 -253
-454 -10 -78 21 -717 80 -1654 27 -423 104 -1574 230 -3445 l77 -1135 71 -115
c123 -198 241 -292 429 -343 76 -20 106 -22 348 -22 460 0 570 31 671 187 91
141 178 426 223 733 65 439 67 1409 6 2475 -75 1292 -216 2510 -365 3152 -75
325 -155 489 -319 654 -88 88 -163 133 -254 153 -82 17 -350 12 -467 -8z"/>
<path d="M3942 7369 c-128 -16 -225 -64 -322 -159 -112 -110 -177 -256 -230
-520 -60 -298 -80 -599 -80 -1195 0 -567 26 -1137 91 -1985 132 -1750 291
-2745 509 -3195 60 -124 120 -189 223 -239 118 -58 181 -71 357 -71 160 0 238
10 400 50 416 103 519 224 591 700 20 128 21 166 16 440 -6 288 -13 428 -57
1130 -57 898 -167 2515 -225 3300 -56 749 -87 1056 -121 1189 -61 237 -266
478 -451 529 -115 32 -534 48 -701 26z"/>
</g>
</svg>
